<svg width="20" height="21" viewBox="0 0 20 21" fill="none" xmlns="http://www.w3.org/2000/svg">
<g id="1. Icons / Line /  add-item-alt">
<path id="Fill 10" fill-rule="evenodd" clip-rule="evenodd" d="M18.2498 5.58903C18.2748 5.62236 18.2998 5.67236 18.3081 5.71403C18.3256 5.7557 18.3331 5.79736 18.3331 5.83903C18.3331 5.87236 18.3256 5.91403 18.3164 5.9557L18.2998 6.0057C18.2414 6.1557 18.0914 6.2557 17.9164 6.2557H15.8331V8.33903C15.8331 8.57236 15.6506 8.7557 15.4164 8.7557C15.1831 8.7557 14.9998 8.57236 14.9998 8.33903V6.2557H12.9164C12.6831 6.2557 12.4998 6.07236 12.4998 5.83903C12.4998 5.61403 12.6831 5.42236 12.9164 5.42236H14.9998V3.33903C14.9998 3.11403 15.1831 2.92236 15.4164 2.92236C15.6506 2.92236 15.8331 3.11403 15.8331 3.33903V5.42236H17.9164C17.9581 5.42236 17.9998 5.4307 18.0414 5.44736C18.0581 5.44736 18.0831 5.4557 18.0998 5.47236C18.1331 5.4807 18.1581 5.49736 18.1831 5.52236C18.2081 5.53903 18.2331 5.56403 18.2498 5.58903ZM17.2 9.8637L16.65 11.7887C16.6 11.9637 16.4334 12.0887 16.25 12.0887H5.49169L5.60002 12.7137C5.70002 13.3137 6.21669 13.7554 6.83335 13.7554H16.25C16.4834 13.7554 16.6667 13.947 16.6667 14.172C16.6667 14.4054 16.4834 14.5887 16.25 14.5887H6.82502C5.80835 14.5887 4.94169 13.8554 4.77502 12.8479L4.59169 11.747V11.7387L3.57502 5.6387C3.47502 5.03036 2.95002 4.5887 2.34169 4.5887H2.08335C1.85002 4.5887 1.66669 4.40536 1.66669 4.17203C1.66669 3.94703 1.85002 3.75536 2.08335 3.75536H2.34169C3.32502 3.75536 4.18335 4.45536 4.38335 5.42203H5.41669H10.4167C10.65 5.42203 10.8334 5.6137 10.8334 5.8387C10.8334 6.07203 10.65 6.25536 10.4167 6.25536H5.41669H4.51669L5.35002 11.2554H15.9334L16.3834 9.68036C16.3834 9.67203 16.3854 9.66578 16.3875 9.65953C16.3896 9.65328 16.3917 9.64703 16.3917 9.6387C16.3917 9.63516 16.3917 9.63312 16.3923 9.63131C16.3932 9.62886 16.3952 9.62683 16.4 9.62206L16.4 9.62204L16.4 9.62203C16.475 9.4137 16.6917 9.2887 16.9084 9.34703C17.1334 9.4137 17.2584 9.6387 17.2 9.8637ZM6.66669 17.9223C6.20835 17.9223 5.83335 17.5473 5.83335 17.0889C5.83335 16.6306 6.20835 16.2556 6.66669 16.2556C7.12502 16.2556 7.50002 16.6306 7.50002 17.0889C7.50002 17.5473 7.12502 17.9223 6.66669 17.9223ZM6.66669 15.4223C5.75002 15.4223 5.00002 16.1723 5.00002 17.0889C5.00002 18.0139 5.75002 18.7556 6.66669 18.7556C7.58335 18.7556 8.33335 18.0139 8.33335 17.0889C8.33335 16.1723 7.58335 15.4223 6.66669 15.4223ZM13.3334 17.0889C13.3334 17.5473 13.7084 17.9223 14.1667 17.9223C14.625 17.9223 15 17.5473 15 17.0889C15 16.6306 14.625 16.2556 14.1667 16.2556C13.7084 16.2556 13.3334 16.6306 13.3334 17.0889ZM12.5 17.0889C12.5 16.1723 13.25 15.4223 14.1667 15.4223C15.0917 15.4223 15.8334 16.1723 15.8334 17.0889C15.8334 18.0139 15.0917 18.7556 14.1667 18.7556C13.25 18.7556 12.5 18.0139 12.5 17.0889Z" fill="white"/>
</g>
</svg>
