<svg width="24" height="24" viewBox="0 0 24 24" fill="none" xmlns="http://www.w3.org/2000/svg">
<g id="Icon">
<path id="Icon Color" fill-rule="evenodd" clip-rule="evenodd" d="M13.9355 22.0302V18.08C13.9355 17.5442 14.3643 17.1101 14.8933 17.1101C16.7808 17.1101 17.8074 15.1497 17.9497 11.2803L14.8933 11.2803C14.3643 11.2803 13.9355 10.8459 13.9355 10.3103V1.96962C13.9355 1.43415 14.3643 1 14.8933 1H23.0424C23.5716 1 24 1.43449 24 1.96962L24 10.3103C24 12.1652 23.8156 13.8674 23.452 15.3701C23.0792 16.9109 22.5069 18.2581 21.7514 19.3744C20.9741 20.5216 20.0018 21.4219 18.8613 22.049C17.7131 22.68 16.3778 23 14.893 23C14.3643 23 13.9355 22.5659 13.9355 22.0302ZM0.957905 17.1101C0.429165 17.1101 0 17.5446 0 18.08V22.0302C0 22.5659 0.429098 23 0.957905 23C2.44213 23 3.77757 22.6799 4.92538 22.049C6.0661 21.4219 7.03893 20.5216 7.81637 19.3744C8.57151 18.2581 9.14384 16.9108 9.51676 15.3697C9.8801 13.8665 10.0645 12.1643 10.0645 10.3103V1.96962C10.0645 1.43415 9.63555 1 9.10668 1H0.95797C0.429232 1 0.000469208 1.43449 0.000469208 1.96962L0.000469208 10.3104C0.000469208 10.8459 0.429165 11.2804 0.95797 11.2804L3.97076 11.2804C3.83061 15.1497 2.81894 17.1101 0.957905 17.1101Z" fill="#DA3743"/>
</g>
</svg>
