<svg width="55" height="30" viewBox="0 0 55 30" fill="none" xmlns="http://www.w3.org/2000/svg">
<g id="Group">
<g id="OBJECTS">
<path id="Vector" d="M40.6327 24.1045C40.2732 23.6666 40.0565 23.1299 40.0117 22.5662C39.9668 22.0024 40.0959 21.4384 40.3817 20.9497C40.777 20.3031 41.1911 19.6721 41.6366 19.0505C42.8068 17.3888 44.9087 17.039 46.1259 18.1385C47.3431 19.238 47.4404 21.1183 46.5086 22.4521C46.1489 22.9665 45.8049 23.4923 45.4765 24.0295C44.8773 25.0166 43.6883 25.2321 42.8099 25.1946C42.6002 25.1934 42.3951 25.2558 42.2219 25.3736C42.0488 25.4913 41.9157 25.6588 41.8405 25.8537C41.7495 26.0754 41.6617 26.3003 41.577 26.5252L50.8568 26.4971C50.8568 26.3753 50.8568 26.2504 50.8568 26.1254C50.7143 19.9872 48.148 14.1522 43.714 9.88514C39.28 5.61808 33.3357 3.26278 27.1695 3.32976C21.0032 3.39674 15.1119 5.88061 10.7725 10.243C6.43309 14.6054 3.99522 20.4947 3.9873 26.6346L21.3767 26.5846C21.4583 26.3066 21.5461 26.038 21.6339 25.7662C22.3527 23.5827 23.2346 21.4559 24.2723 19.4035C24.586 18.7788 24.6582 18.0635 24.426 17.62C23.9805 16.7703 23.7296 15.2336 24.7397 13.5874C26.0443 11.4477 27.5127 9.41135 29.1318 7.49648C29.2464 7.35798 29.3942 7.25054 29.5616 7.18413C29.625 7.15423 29.6959 7.14391 29.7652 7.15448C29.8346 7.16506 29.8991 7.19605 29.9506 7.24347C30.1043 7.41215 30.0071 7.7776 29.7624 8.0681C28.5373 9.5137 27.4006 11.0314 26.3585 12.6129C26.2595 12.7562 26.201 12.9235 26.1891 13.097C26.1823 13.1554 26.1902 13.2145 26.2121 13.2691C26.234 13.3236 26.2692 13.3718 26.3146 13.4094C26.5091 13.5624 26.8699 13.3719 27.0895 13.0346C28.1127 11.4828 29.2295 9.99434 30.4337 8.57724C30.5428 8.44409 30.6858 8.34266 30.8478 8.28362C30.9037 8.25913 30.9647 8.24887 31.0255 8.25378C31.0863 8.25869 31.1449 8.27861 31.1961 8.31173C31.3937 8.45542 31.3153 8.85211 31.0612 9.15197C29.8805 10.543 28.7847 12.0033 27.7797 13.525C27.6846 13.6649 27.6293 13.8279 27.6197 13.9966C27.6156 14.0569 27.6271 14.1171 27.6529 14.1718C27.6786 14.2264 27.718 14.2736 27.7671 14.309C27.8217 14.3396 27.8833 14.3557 27.9459 14.3557C28.0086 14.3557 28.0702 14.3396 28.1248 14.309C28.2717 14.2388 28.3973 14.131 28.4887 13.9966C29.4738 12.499 30.5498 11.0627 31.7106 9.69547C31.9615 9.38312 32.338 9.27379 32.5105 9.44871C32.547 9.4912 32.5734 9.54141 32.5875 9.59553C32.6016 9.64964 32.6032 9.70625 32.5921 9.76107C32.5649 9.92306 32.4933 10.0744 32.3851 10.1984C31.2467 11.5383 30.1907 12.9454 29.2228 14.4121C29.0126 14.7244 29.0032 15.118 29.2228 15.2304C29.2752 15.2573 29.3333 15.2713 29.3922 15.2713C29.4511 15.2713 29.5092 15.2573 29.5616 15.2304C29.7064 15.1621 29.8284 15.0536 29.913 14.9181C30.8623 13.4774 31.8984 12.0952 33.0156 10.7793C33.2384 10.5138 33.5709 10.3889 33.756 10.5201C33.8089 10.5614 33.849 10.6167 33.8718 10.6797C33.8945 10.7427 33.899 10.8108 33.8846 10.8762C33.8595 11.0333 33.7911 11.1803 33.687 11.301C32.262 12.9793 30.9698 14.7651 29.822 16.6423C29.4949 17.2034 29.0449 17.6838 28.5056 18.0477C27.9662 18.4117 27.3514 18.6498 26.7068 18.7444C26.2174 18.8038 25.6997 19.2692 25.4268 19.9095C24.5617 21.9595 23.8507 24.0706 23.2998 26.2254C23.2715 26.3378 23.2433 26.444 23.2182 26.5565L31.4627 26.5315C31.562 26.1995 31.5908 25.8506 31.5474 25.507C31.3634 24.8989 31.1919 24.2742 31.0329 23.6328C30.9778 22.853 31.1315 22.0726 31.4784 21.3714C32.1658 19.9356 32.939 18.5421 33.7936 17.1983C34.3296 16.3418 35.0549 15.6185 35.9144 15.0836C36.7081 14.6026 37.5049 14.1466 38.3143 13.7436C38.4534 13.6555 38.6161 13.6116 38.7809 13.6177C38.9456 13.6239 39.1046 13.6798 39.2367 13.778C39.5786 14.0903 39.5504 14.6744 39.1739 15.143C36.481 18.5486 34.4084 22.3978 33.0501 26.5159L40.1057 26.494C40.3002 26.0879 40.5009 25.6881 40.708 25.2914C40.8047 25.1054 40.8487 24.8966 40.8355 24.6876C40.8222 24.4785 40.7521 24.277 40.6327 24.1045Z" fill="url(#paint0_linear_2_1989)"/>
<path id="Vector_2" d="M0.884671 28.2434C0.887158 28.6659 1.05748 29.0703 1.35844 29.3682C1.6594 29.6661 2.06653 29.8333 2.49091 29.8333L20.5171 29.7802C20.7618 28.7036 21.0484 27.6395 21.3767 26.5879L2.4815 26.641C2.27086 26.6414 2.06237 26.6832 1.868 26.764C1.67363 26.8449 1.4972 26.9631 1.34884 27.112C1.20048 27.2609 1.08311 27.4375 1.00345 27.6316C0.923797 27.8258 0.883432 28.0337 0.884671 28.2434Z" fill="url(#paint1_linear_2_1989)"/>
<path id="Vector_3" d="M22.5311 29.7742L30.3929 29.7523C30.556 29.1776 30.7286 28.6059 30.9168 28.0437C31.0643 27.5939 31.2305 27.1472 31.3905 26.7068C31.4091 26.6578 31.4248 26.6077 31.4376 26.5569L23.1931 26.5819C22.939 27.6345 22.7194 28.7028 22.5311 29.7742Z" fill="url(#paint2_linear_2_1989)"/>
<path id="Vector_4" d="M32.4478 28.484C32.3348 28.9025 32.2281 29.3242 32.134 29.7334L38.7723 29.7147C39.1577 28.631 39.6007 27.5686 40.0993 26.5317L33.0438 26.5536C32.8148 27.1908 32.6234 27.8374 32.4478 28.484Z" fill="url(#paint3_linear_2_1989)"/>
<path id="Vector_5" d="M54.4206 26.9533C54.2719 26.8013 54.0937 26.6812 53.8968 26.6001C53.7 26.519 53.4886 26.4787 53.2755 26.4816L41.5582 26.516C41.155 27.5599 40.8114 28.6257 40.5292 29.7082L53.2849 29.6708C53.6022 29.6697 53.912 29.575 54.1752 29.3986C54.4383 29.2221 54.643 28.9719 54.7632 28.6796C54.8835 28.3873 54.9139 28.0661 54.8507 27.7565C54.7875 27.447 54.6334 27.1631 54.4081 26.9408L54.4206 26.9533Z" fill="url(#paint4_linear_2_1989)"/>
<path id="Vector_6" style="mix-blend-mode:multiply" d="M46.5024 22.4523C47.4436 21.1186 47.34 19.2382 46.1197 18.1387C44.8993 17.0392 42.8005 17.389 41.6304 19.0508C41.1912 19.6755 40.7771 20.3002 40.3755 20.9499C40.0897 21.4387 39.9606 22.0026 40.0054 22.5664C40.0503 23.1302 40.267 23.6669 40.6265 24.1047C40.7496 24.2827 40.8202 24.4914 40.8302 24.7073C40.8402 24.9232 40.7892 25.1376 40.6829 25.326C40.4759 25.7227 40.2751 26.1225 40.0806 26.5286L33.0251 26.5505C34.3862 22.4317 36.462 18.5825 39.1583 15.1776C39.5285 14.709 39.563 14.1124 39.221 13.8126C39.0889 13.7144 38.93 13.6585 38.7652 13.6523C38.6005 13.6462 38.4378 13.6901 38.2987 13.7782C37.4893 14.1905 36.6924 14.6372 35.8987 15.1182C35.0393 15.6531 34.3139 16.3764 33.778 17.2329C32.9233 18.5767 32.1502 19.9702 31.4628 21.406C31.1099 22.1067 30.9508 22.8883 31.0016 23.6705C31.1585 24.2953 31.33 24.92 31.5161 25.5447C31.5595 25.8883 31.5306 26.2372 31.4314 26.5692L23.1869 26.5942C23.7451 24.3263 24.4793 22.105 25.3829 19.9504C25.6558 19.3257 26.1735 18.8446 26.6629 18.7853C27.3075 18.6907 27.9223 18.4525 28.4617 18.0886C29.0011 17.7246 29.451 17.2442 29.7781 16.6831C30.9259 14.8059 32.2181 13.0202 33.6431 11.3418C33.7472 11.2212 33.8156 11.0741 33.8407 10.917C33.8551 10.8516 33.8506 10.7835 33.8279 10.7206C33.8051 10.6576 33.765 10.6023 33.7121 10.5609C33.527 10.4297 33.1945 10.5609 32.9717 10.8202C31.8545 12.1361 30.8184 13.5182 29.8691 14.9589C29.7845 15.0945 29.6625 15.2029 29.5177 15.2713C29.4653 15.2981 29.4072 15.3121 29.3483 15.3121C29.2894 15.3121 29.2313 15.2981 29.1789 15.2713C28.9624 15.1588 28.9718 14.7715 29.1789 14.4529C30.1559 12.9855 31.2214 11.5783 32.3694 10.2392C32.4776 10.1153 32.5493 9.9639 32.5765 9.80191C32.5876 9.7471 32.586 9.69049 32.5718 9.63637C32.5577 9.58225 32.5314 9.53205 32.4949 9.48955C32.3224 9.31463 31.9459 9.43958 31.6949 9.73632C30.5342 11.1035 29.4582 12.5399 28.473 14.0375C28.3817 14.1719 28.2561 14.2797 28.1091 14.3498C28.0546 14.3805 27.993 14.3966 27.9303 14.3966C27.8677 14.3966 27.8061 14.3805 27.7515 14.3498C27.7023 14.3145 27.663 14.2673 27.6372 14.2126C27.6114 14.158 27.6 14.0977 27.604 14.0375C27.6137 13.8688 27.669 13.7058 27.764 13.5658C28.7691 12.0441 29.8649 10.5838 31.0455 9.19282C31.2996 8.88046 31.3781 8.49626 31.1804 8.35258C31.1293 8.31945 31.0707 8.29953 31.0099 8.29462C30.9491 8.28972 30.888 8.29997 30.8322 8.32447C30.6702 8.38351 30.5271 8.48493 30.4181 8.61808C29.2147 10.0271 28.0979 11.5073 27.0739 13.0504C26.8542 13.3878 26.4935 13.5783 26.299 13.4252C26.2536 13.3877 26.2184 13.3395 26.1964 13.2849C26.1745 13.2304 26.1666 13.1712 26.1735 13.1129C26.1854 12.9393 26.2439 12.7721 26.3429 12.6287C27.3845 11.0429 28.5212 9.52109 29.7467 8.07146C29.9914 7.78096 30.0887 7.41551 29.935 7.24683C29.8835 7.19941 29.8189 7.16842 29.7496 7.15784C29.6803 7.14727 29.6093 7.15759 29.546 7.18749C29.3786 7.2539 29.2307 7.36135 29.1162 7.49984C27.497 9.41471 26.0287 11.4511 24.7241 13.5908C23.7233 15.2369 23.9743 16.7737 24.4104 17.6233C24.6425 18.0669 24.5767 18.7697 24.2567 19.4069C23.219 21.4593 22.3371 23.5861 21.6183 25.7696C21.5305 26.0413 21.4426 26.3099 21.361 26.5879C20.8208 26.5929 20.2859 26.482 19.7926 26.2628C19.2992 26.0436 18.859 25.7213 18.5019 25.3177C18.1448 24.9141 17.8791 24.4387 17.7228 23.9239C17.5666 23.409 17.5235 22.8666 17.5964 22.3337C18.9988 12.2008 25.4394 4.45124 33.2823 3.97021C38.2393 5.24651 42.6403 8.10364 45.8128 12.105C48.9852 16.1063 50.7546 21.0318 50.8505 26.1288C50.8505 26.2537 50.8505 26.3787 50.8505 26.5005L41.5708 26.5286C41.6555 26.3037 41.7433 26.0788 41.8343 25.857C41.9095 25.6621 42.0425 25.4947 42.2157 25.3769C42.3889 25.2592 42.594 25.1968 42.8037 25.198C43.6821 25.2354 44.8711 25.0199 45.4703 24.0329C45.7965 23.4935 46.1406 22.9667 46.5024 22.4523Z" fill="url(#paint5_linear_2_1989)"/>
<path id="Vector_7" d="M27.8017 0C27.2193 0 26.6607 0.230362 26.2489 0.640409C25.837 1.05046 25.6057 1.6066 25.6057 2.1865V4.37299H29.9977V2.1865C29.9977 1.6066 29.7663 1.05046 29.3545 0.640409C28.9427 0.230362 28.3841 0 27.8017 0Z" fill="url(#paint6_linear_2_1989)"/>
</g>
</g>
<defs>
<linearGradient id="paint0_linear_2_1989" x1="42.3643" y1="36.5438" x2="8.72038" y2="2.95315" gradientUnits="userSpaceOnUse">
<stop stop-color="#FFAB17"/>
<stop offset="0.28" stop-color="#FF8121"/>
<stop offset="0.6" stop-color="#FF572B"/>
<stop offset="0.85" stop-color="#FF3D31"/>
<stop offset="1" stop-color="#FF3333"/>
</linearGradient>
<linearGradient id="paint1_linear_2_1989" x1="31.2573" y1="47.6717" x2="-2.38973" y2="14.0811" gradientUnits="userSpaceOnUse">
<stop stop-color="#FFAB17"/>
<stop offset="0.28" stop-color="#FF8121"/>
<stop offset="0.6" stop-color="#FF572B"/>
<stop offset="0.85" stop-color="#FF3D31"/>
<stop offset="1" stop-color="#FF3333"/>
</linearGradient>
<linearGradient id="paint2_linear_2_1989" x1="38.933" y1="39.984" x2="5.28913" y2="6.39023" gradientUnits="userSpaceOnUse">
<stop stop-color="#FFAB17"/>
<stop offset="0.28" stop-color="#FF8121"/>
<stop offset="0.6" stop-color="#FF572B"/>
<stop offset="0.85" stop-color="#FF3D31"/>
<stop offset="1" stop-color="#FF3333"/>
</linearGradient>
<linearGradient id="paint3_linear_2_1989" x1="43.4809" y1="35.4287" x2="9.83385" y2="1.8381" gradientUnits="userSpaceOnUse">
<stop stop-color="#FFAB17"/>
<stop offset="0.28" stop-color="#FF8121"/>
<stop offset="0.6" stop-color="#FF572B"/>
<stop offset="0.85" stop-color="#FF3D31"/>
<stop offset="1" stop-color="#FF3333"/>
</linearGradient>
<linearGradient id="paint4_linear_2_1989" x1="49.0329" y1="29.8678" x2="15.389" y2="-3.72595" gradientUnits="userSpaceOnUse">
<stop stop-color="#FFAB17"/>
<stop offset="0.28" stop-color="#FF8121"/>
<stop offset="0.6" stop-color="#FF572B"/>
<stop offset="0.85" stop-color="#FF3D31"/>
<stop offset="1" stop-color="#FF3333"/>
</linearGradient>
<linearGradient id="paint5_linear_2_1989" x1="34.1982" y1="19.6945" x2="10.3164" y2="2.26193" gradientUnits="userSpaceOnUse">
<stop stop-color="white"/>
<stop offset="0.13" stop-color="#F3BCBC"/>
<stop offset="0.27" stop-color="#E98181"/>
<stop offset="0.38" stop-color="#E15757"/>
<stop offset="0.47" stop-color="#DD3D3D"/>
<stop offset="0.52" stop-color="#DB3333"/>
</linearGradient>
<linearGradient id="paint6_linear_2_1989" x1="52.0669" y1="26.8289" x2="18.4199" y2="-6.76479" gradientUnits="userSpaceOnUse">
<stop stop-color="#FFAB17"/>
<stop offset="0.28" stop-color="#FF8121"/>
<stop offset="0.6" stop-color="#FF572B"/>
<stop offset="0.85" stop-color="#FF3D31"/>
<stop offset="1" stop-color="#FF3333"/>
</linearGradient>
</defs>
</svg>
