<svg width="81" height="44" viewBox="0 0 81 44" fill="none" xmlns="http://www.w3.org/2000/svg">
<g id="Pagination">
<path id="Muted" fill-rule="evenodd" clip-rule="evenodd" d="M27 22C27 24.2091 25.2091 26 23 26C20.7909 26 19 24.2091 19 22C19 19.7909 20.7909 18 23 18C25.2091 18 27 19.7909 27 22ZM41 26C43.2091 26 45 24.2091 45 22C45 19.7909 43.2091 18 41 18C38.7909 18 37 19.7909 37 22C37 24.2091 38.7909 26 41 26ZM63 22C63 24.2091 61.2091 26 59 26C56.7909 26 55 24.2091 55 22C55 19.7909 56.7909 18 59 18C61.2091 18 63 19.7909 63 22ZM81 22C81 24.2091 79.2091 26 77 26C74.7909 26 73 24.2091 73 22C73 19.7909 74.7909 18 77 18C79.2091 18 81 19.7909 81 22Z" fill="#EBECEC"/>
<path id="Active" fill-rule="evenodd" clip-rule="evenodd" d="M5 26C7.20914 26 9 24.2091 9 22C9 19.7909 7.20914 18 5 18C2.79086 18 1 19.7909 1 22C1 24.2091 2.79086 26 5 26Z" fill="#DA3743"/>
</g>
</svg>
